PathFileType	4	(x/y/z)	S01_PSF_T09.trc
DataRate	CameraRate	NumFrames	NumMarkers	Units	OrigDataRate	OrigDataStartFrame	OrigNumFrames
240	240	10	51	mm	240	1	402
Frame#	Time	Sternum			R.Acromium			L.Acromium			Top.Head			R.ASIS			L.ASIS			R.PSIS			L.PSIS			R.Great.Tro			L.Great.Tro			R.Iliac.Crest			L.Iliac.Crest			V.Sacral			R.Thigh.Upper.Post			R.Thigh.Lower.Ant			R.Thigh.Lower.Post			R.Thigh.Upper.Ant			R.Knee.Lat			R.Knee.Med			R.Shank.Upper.Post			R.Shank.Lower.Ant			R.Shank.Lower.Post			R.Shank.Upper.Ant			R.Ankle.Lat			R.Ankle.Med			R.Heel.Upper			R.Heel.Med			R.Heel.Lat			R.Toe.Lat			R.Toe.Med			R.Toe.Tip			L.Thigh.Upper.Post			L.Thigh.Lower.Ant			L.Thigh.Lower.Post			L.Thigh.Upper.Ant			L.Knee.Lat			L.Knee.Med			L.Shank.Upper.Post			L.Shank.Lower.Ant			L.Shank.Lower.Post			L.Shank.Upper.Ant			L.Ankle.Lat			L.Ankle.Med			L.Heel.Upper			L.Heel.Med			L.Heel.Lat			L.Toe.Lat			L.Toe.Med			L.Toe.Tip			Cervical.Spine			Back			
		X1	Y1	Z1	X2	Y2	Z2	X3	Y3	Z3	X4	Y4	Z4	X5	Y5	Z5	X6	Y6	Z6	X7	Y7	Z7	X8	Y8	Z8	X9	Y9	Z9	X10	Y10	Z10	X11	Y11	Z11	X12	Y12	Z12	X13	Y13	Z13	X14	Y14	Z14	X15	Y15	Z15	X16	Y16	Z16	X17	Y17	Z17	X18	Y18	Z18	X19	Y19	Z19	X20	Y20	Z20	X21	Y21	Z21	X22	Y22	Z22	X23	Y23	Z23	X24	Y24	Z24	X25	Y25	Z25	X26	Y26	Z26	X27	Y27	Z27	X28	Y28	Z28	X29	Y29	Z29	X30	Y30	Z30	X31	Y31	Z31	X32	Y32	Z32	X33	Y33	Z33	X34	Y34	Z34	X35	Y35	Z35	X36	Y36	Z36	X37	Y37	Z37	X38	Y38	Z38	X39	Y39	Z39	X40	Y40	Z40	X41	Y41	Z41	X42	Y42	Z42	X43	Y43	Z43	X44	Y44	Z44	X45	Y45	Z45	X46	Y46	Z46	X47	Y47	Z47	X48	Y48	Z48	X49	Y49	Z49	X50	Y50	Z50	X51	Y51	Z51	

1	0	NaN	NaN	NaN	-1496.6	1489.6	478.22	-1556.8	1510.7	155.78	-1488.6	1817.5	314.14	NaN	NaN	NaN	NaN	NaN	NaN	-1702.2	1032.4	360.19	-1701.4	1022.8	258.04	-1550.9	942.05	536.94	-1554.7	942.65	111.25	-1548.8	1084.5	524.54	-1576.1	1072.4	117.87	-1713.8	991.24	308.25	-1652.2	658.5	506.2	-1590.1	572.65	481.41	-1672.9	572.83	488.97	-1578.4	656.42	503.2	-1693.5	507.36	485.92	NaN	NaN	NaN	-1817.9	398.25	493.06	NaN	NaN	NaN	-1857.2	340.84	479.99	NaN	NaN	NaN	-1963.7	157.19	439.88	-1922.9	156.59	351.48	-2035.5	157.2	376.37	-2027.2	126.5	345.4	-2039.6	121.63	408.07	-1873.7	41.424	473.96	-1831.9	48.307	352.2	-1768.2	52.074	410.38	-1476.6	663.66	143.32	-1370.5	630.03	142.43	-1433.3	585.06	163.58	-1422.6	707.29	121.06	-1352.6	529.27	153.84	-1331.6	540.89	294.83	-1352	384.88	136.41	-1266.4	317.95	163.26	-1327.6	310.03	140.06	-1289.9	390.66	155.2	-1276	103.21	172.47	-1253	118.66	272.09	-1339.7	63.233	223.06	-1323.4	42.116	255.52	-1327.9	41.263	192.78	-1120	65.116	159.75	-1096.1	84.794	278.19	-1036.3	106.19	225.35	-1614.8	1562.8	334.05	-1713.2	1255.9	355.55
2	0.0041667	NaN	NaN	NaN	-1491.6	1490.1	477.38	-1551.3	1510.8	154.77	-1483.9	1818	313.04	NaN	NaN	NaN	NaN	NaN	NaN	-1696.2	1032.5	359.46	-1695.7	1023.4	257.23	-1545.1	941.97	536.39	-1548.7	943.35	110.74	-1542.7	1084.8	523.94	-1569.4	1072.9	117.1	-1707.9	991.53	307.37	-1645.2	658.01	506.43	-1582.8	572.23	482.49	-1665.2	572.11	489.51	-1571.1	656.29	503.55	-1685.4	506.75	486.83	NaN	NaN	NaN	-1811.1	399.41	493.74	NaN	NaN	NaN	-1851.2	342.56	480.64	NaN	NaN	NaN	-1959.9	160.33	440.69	-1919.1	159.16	352.49	-2031.5	162.32	377.18	-2023.5	131.81	345.92	-2036.4	126.7	408.53	-1873.1	42.037	474.02	-1831.4	48.842	352.37	-1768.1	51.718	410.72	-1470.2	664.25	142.75	-1364.1	630.71	142.08	-1426.9	585.7	163.09	-1416.3	707.95	120.54	-1346.1	529.91	153.74	-1326.4	541.84	295.01	-1347.4	385.41	136.13	-1262.6	317.63	163.2	-1323.7	310.39	139.84	-1285.1	390.59	155.05	-1274.7	103.15	172.44	-1251.6	118.45	272.17	-1338.8	63.903	222.91	-1322.9	42.583	255.45	-1327.2	41.648	192.78	-1119.1	63.165	159.69	-1095.1	82.471	278.3	-1034.9	102.99	225.45	-1609.7	1563.1	332.94	-1707.6	1256	354.66
3	0.0083333	NaN	NaN	NaN	-1486.3	1490.7	476.52	-1545.6	1510.9	153.73	-1479	1818.5	311.9	NaN	NaN	NaN	NaN	NaN	NaN	-1690	1032.7	358.72	-1689.6	1023.9	256.42	-1539.1	941.91	535.81	-1542.5	944.08	110.23	-1536.4	1085.3	523.3	-1562.4	1073.4	116.33	-1701.8	991.85	306.48	-1637.9	657.5	506.67	-1575.2	571.8	483.62	-1657.2	571.35	490.08	-1563.6	656.15	503.94	-1677	506.09	487.79	NaN	NaN	NaN	-1803.9	400.61	494.47	NaN	NaN	NaN	-1844.7	344.37	481.35	NaN	NaN	NaN	-1955.9	163.66	441.54	-1915.1	161.88	353.56	-2027.3	167.73	378.05	-2019.7	137.42	346.49	-2032.9	132.07	409.04	-1872.4	42.762	474.1	-1830.9	49.474	352.55	-1767.6	51.447	410.84	-1463.7	664.86	142.16	-1357.6	631.4	141.72	-1420.4	586.36	162.57	-1409.7	708.63	120.02	-1339.4	530.53	153.62	-1320.9	542.79	295.15	-1342.6	385.94	135.84	-1258.6	317.3	163.13	-1319.7	310.75	139.61	-1280.2	390.51	154.9	-1273.3	103.09	172.41	-1250.1	118.24	272.25	-1337.9	64.586	222.77	-1322.4	43.057	255.39	-1326.5	42.048	192.78	-1118.2	61.201	159.65	-1094	80.102	278.44	-1033.6	99.734	225.57	-1604.4	1563.4	331.8	-1701.8	1256.1	353.73
4	0.0125	NaN	NaN	NaN	-1480.9	1491.4	475.62	-1539.7	1511	152.67	-1474	1819	310.72	NaN	NaN	NaN	NaN	NaN	NaN	-1683.6	1032.8	357.99	-1683.4	1024.6	255.61	-1532.8	941.85	535.2	-1536.2	944.84	109.71	-1529.8	1085.7	522.63	-1555.2	1074	115.56	-1695.4	992.2	305.6	-1630.2	656.96	506.94	-1567.2	571.38	484.78	-1648.8	570.56	490.69	-1555.7	656.02	504.35	-1668.2	505.41	488.78	NaN	NaN	NaN	-1796.3	401.85	495.24	NaN	NaN	NaN	-1838	346.26	482.1	NaN	NaN	NaN	-1951.6	167.17	442.43	-1910.8	164.74	354.66	-2022.7	173.41	378.98	-2015.5	143.31	347.12	-2029.2	137.74	409.6	-1871.7	43.616	474.18	-1830.3	50.214	352.74	-1767.4	50.997	411.15	-1457	665.48	141.54	-1351	632.09	141.36	-1413.8	587.02	162.03	-1403	709.32	119.49	-1332.6	531.13	153.49	-1315.2	543.71	295.24	-1337.7	386.46	135.53	-1254.5	316.94	163.06	-1315.6	311.11	139.37	-1275.2	390.41	154.75	-1271.9	103.03	172.4	-1248.6	118.02	272.34	-1337	65.274	222.62	-1321.9	43.531	255.33	-1325.8	42.458	192.78	-1117.4	59.251	159.62	-1092.9	77.715	278.58	-1032.2	96.462	225.71	-1598.9	1563.7	330.62	-1695.9	1256.3	352.77
5	0.016667	NaN	NaN	NaN	-1475.4	1492.1	474.71	-1533.6	1511.2	151.59	-1468.8	1819.5	309.5	NaN	NaN	NaN	NaN	NaN	NaN	-1677.1	1033	357.28	-1677.1	1025.2	254.81	-1526.4	941.81	534.57	-1529.7	945.61	109.18	-1523.1	1086.3	521.92	-1547.9	1074.6	114.8	-1689	992.59	304.73	-1622.3	656.39	507.23	-1558.8	570.96	485.97	-1640.1	569.73	491.33	-1547.6	655.9	504.8	-1659	504.7	489.82	NaN	NaN	NaN	-1788.3	403.13	496.06	NaN	NaN	NaN	-1830.9	348.22	482.91	NaN	NaN	NaN	-1947	170.85	443.37	-1906.2	167.72	355.81	-2017.8	179.34	379.96	-2011.1	149.47	347.8	-2025.2	143.69	410.2	-1870.9	44.616	474.27	-1829.6	51.074	352.95	NaN	NaN	NaN	-1450.3	666.12	140.92	-1344.3	632.77	140.99	-1407.1	587.68	161.47	-1396.3	710.01	118.97	-1325.8	531.7	153.33	-1309.3	544.59	295.27	-1332.8	386.97	135.22	-1250.4	316.57	162.98	-1311.5	311.46	139.12	-1270.1	390.28	154.6	-1270.6	102.97	172.39	-1247.1	117.8	272.44	-1336.1	65.958	222.48	-1321.4	43.999	255.27	-1325.1	42.875	192.77	-1116.5	57.341	159.6	-1091.9	75.336	278.75	-1030.9	93.214	225.88	-1593.3	1564	329.42	-1689.7	1256.5	351.8
6	0.020833	NaN	NaN	NaN	-1469.8	1492.9	473.77	-1527.4	1511.4	150.5	-1463.6	1820.1	308.25	NaN	NaN	NaN	NaN	NaN	NaN	-1670.5	1033.3	356.58	-1670.7	1025.9	254.04	-1519.9	941.79	533.92	-1523.1	946.4	108.66	-1516.3	1086.9	521.18	-1540.6	1075.3	114.05	-1682.4	993.02	303.88	-1614.1	655.79	507.54	-1550.2	570.54	487.19	-1631.1	568.88	492.01	-1539.2	655.78	505.28	-1649.5	503.96	490.88	NaN	NaN	NaN	-1780	404.43	496.92	NaN	NaN	NaN	-1823.5	350.24	483.75	NaN	NaN	NaN	-1942.2	174.7	444.34	-1901.4	170.83	356.98	-2012.6	185.5	380.99	-2006.3	155.87	348.52	-2020.8	149.91	410.86	-1870	45.783	474.37	-1828.8	52.066	353.18	NaN	NaN	NaN	-1443.5	666.76	140.29	-1337.5	633.44	140.61	-1400.3	588.34	160.91	-1389.4	710.7	118.47	-1319	532.23	153.16	-1303.3	545.42	295.23	-1327.9	387.46	134.9	-1246.4	316.18	162.91	-1307.4	311.78	138.86	-1265.1	390.14	154.45	-1269.2	102.92	172.39	-1245.7	117.57	272.54	-1335.2	66.631	222.34	-1320.9	44.457	255.21	-1324.5	43.292	192.76	-1115.6	55.496	159.6	-1090.9	72.989	278.93	-1029.6	90.025	226.08	-1587.5	1564.4	328.2	-1683.5	1256.7	350.82
7	0.025	NaN	NaN	NaN	-1464.1	1493.7	472.83	-1521.1	1511.7	149.41	-1458.2	1820.7	306.98	NaN	NaN	NaN	NaN	NaN	NaN	-1663.8	1033.6	355.91	-1664.1	1026.6	253.3	-1513.3	941.79	533.26	-1516.5	947.21	108.14	-1509.3	1087.6	520.41	-1533.3	1076	113.34	-1675.7	993.49	303.06	-1605.7	655.18	507.88	-1541.3	570.14	488.42	-1621.8	568	492.71	-1530.6	655.67	505.78	-1639.7	503.2	491.96	NaN	NaN	NaN	-1771.3	405.75	497.83	NaN	NaN	NaN	-1815.7	352.31	484.64	NaN	NaN	NaN	-1937.1	178.71	445.34	-1896.2	174.04	358.17	-2007.1	191.86	382.06	-2001.3	162.49	349.3	-2016.1	156.37	411.57	-1869	47.134	474.48	-1827.8	53.199	353.42	NaN	NaN	NaN	-1436.7	667.41	139.65	-1330.8	634.08	140.24	-1393.6	588.98	160.33	-1382.6	711.38	117.98	-1312.3	532.7	152.98	-1297.2	546.18	295.13	-1323	387.93	134.58	-1242.3	315.78	162.85	-1303.3	312.09	138.59	-1260.2	389.97	154.31	-1268	102.88	172.41	-1244.3	117.36	272.65	-1334.4	67.286	222.21	-1320.4	44.897	255.15	-1323.9	43.707	192.76	-1114.8	53.736	159.61	-1089.9	70.697	279.12	-1028.4	86.927	226.31	-1581.7	1564.8	326.98	-1677.1	1257	349.82
8	0.029167	NaN	NaN	NaN	-1458.3	1494.6	471.88	-1514.8	1512.1	148.32	-1452.8	1821.4	305.7	NaN	NaN	NaN	NaN	NaN	NaN	-1657.1	1033.9	355.28	-1657.6	1027.4	252.59	-1506.6	941.81	532.58	-1509.8	948.02	107.63	-1502.3	1088.3	519.62	-1526	1076.7	112.66	-1669.1	994	302.28	-1597	654.54	508.23	-1532.1	569.74	489.67	-1612.3	567.1	493.43	-1521.8	655.57	506.32	-1629.6	502.42	493.06	NaN	NaN	NaN	-1762.4	407.09	498.77	-1761.4	302.26	467.38	-1807.7	354.43	485.57	NaN	NaN	NaN	-1931.7	182.87	446.36	-1890.8	177.36	359.36	-2001.1	198.41	383.16	-1996	169.31	350.12	-2011.1	163.07	412.32	-1867.9	48.687	474.6	-1826.7	54.481	353.68	NaN	NaN	NaN	-1430	668.05	139.03	-1324.1	634.67	139.87	-1387	589.6	159.76	-1375.9	712.04	117.5	-1305.7	533.12	152.78	-1291	546.85	294.96	-1318.2	388.36	134.25	-1238.4	315.37	162.79	-1299.3	312.38	138.33	-1255.3	389.78	154.17	-1266.7	102.84	172.44	-1243	117.14	272.77	-1333.6	67.915	222.08	-1319.9	45.316	255.09	-1323.3	44.114	192.75	-1114	52.08	159.63	-1089	68.48	279.32	-1027.2	83.949	226.57	-1575.8	1565.3	325.74	-1670.7	1257.3	348.83
9	0.033333	NaN	NaN	NaN	-1452.5	1495.5	470.92	-1508.4	1512.5	147.24	-1447.4	1822	304.41	NaN	NaN	NaN	NaN	NaN	NaN	-1650.4	1034.3	354.69	-1651	1028.1	251.93	-1499.8	941.85	531.89	-1503.1	948.85	107.13	-1495.3	1089.1	518.79	-1518.7	1077.5	112.01	-1662.4	994.54	301.54	-1588.2	653.89	508.6	-1522.7	569.36	490.92	-1602.6	566.19	494.17	-1512.8	655.49	506.87	-1619.2	501.63	494.17	NaN	NaN	NaN	-1753.1	408.43	499.75	-1754.4	303.4	468.31	-1799.3	356.58	486.54	NaN	NaN	NaN	-1925.9	187.17	447.39	-1885.2	180.78	360.53	-1994.8	205.12	384.29	-1990.3	176.31	350.97	-2005.7	169.98	413.12	-1866.7	50.458	474.74	-1825.4	55.918	353.96	NaN	NaN	NaN	-1423.4	668.69	138.41	-1317.6	635.22	139.49	-1380.5	590.2	159.2	-1369.2	712.66	117.05	-1299.3	533.48	152.57	-1285	547.43	294.73	-1313.5	388.77	133.94	-1234.5	314.94	162.73	-1295.3	312.64	138.06	-1250.6	389.57	154.03	-1265.6	102.81	172.49	-1241.7	116.92	272.89	-1332.8	68.513	221.98	-1319.5	45.709	255.04	-1322.8	44.51	192.74	-1113.2	50.539	159.66	-1088.2	66.355	279.53	-1026.1	81.113	226.84	-1569.8	1565.8	324.51	-1664.3	1257.6	347.84
10	0.0375	NaN	NaN	NaN	-1446.6	1496.4	469.97	-1502	1512.9	146.18	-1442	1822.7	303.11	NaN	NaN	NaN	NaN	NaN	NaN	-1643.7	1034.7	354.13	-1644.5	1028.9	251.31	-1493	941.91	531.19	-1496.4	949.68	106.64	-1488.3	1090	517.95	-1511.5	1078.3	111.39	-1655.7	995.11	300.85	-1579.3	653.22	508.99	-1513.2	568.99	492.18	-1592.7	565.26	494.93	-1503.7	655.42	507.45	-1608.6	500.83	495.28	NaN	NaN	NaN	-1743.5	409.77	500.75	-1747	304.61	469.24	-1790.7	358.76	487.53	NaN	NaN	NaN	-1919.9	191.61	448.43	-1879.2	184.29	361.69	-1988.1	211.98	385.43	-1984.3	183.46	351.86	-1999.9	177.08	413.94	-1865.2	52.464	474.89	-1823.9	57.511	354.26	NaN	NaN	NaN	-1417	669.31	137.82	-1311.2	635.72	139.13	-1374.2	590.77	158.66	-1362.6	713.26	116.61	-1293.1	533.77	152.36	-1278.9	547.91	294.44	-1308.9	389.14	133.63	-1230.7	314.51	162.69	-1291.5	312.88	137.81	-1246	389.33	153.91	-1264.5	102.79	172.55	-1240.6	116.71	273.02	-1332.1	69.075	221.88	-1319.1	46.074	255	-1322.3	44.889	192.73	-1112.5	49.124	159.71	-1087.4	64.336	279.74	-1025	78.437	227.12	-1563.9	1566.3	323.29	-1657.8	1258	346.86
